<svg viewBox="0 0 600 600" xmlns="http://www.w3.org/2000/svg"><path d="m0 0h600v600h-600z" fill="#fff"/><path d="m148.8 229.38h-21.99v141.33h94.99v-21.99h-73z"/><path d="m296 229.17c-39.02 0-70.77 31.75-70.77 70.77 0 11.74 2.94 23.37 8.49 33.64 12.39 22.9 36.26 37.13 62.28 37.13 39.02 0 70.77-31.75 70.77-70.77s-31.75-70.77-70.77-70.77zm0 119.55c-17.94 0-34.39-9.81-42.94-25.61-3.82-7.06-5.84-15.08-5.84-23.17 0-26.9 21.88-48.78 48.78-48.78s48.78 21.88 48.78 48.78-21.89 48.78-48.78 48.78z"/><path d="m483.41 229.27h-112.3v21.99h45.33v119.74h21.99v-119.74h44.98z"/></svg>